# xmcd
#
# Track frame offsets:
#	150
#	15665
#	34090
#	53965
#	72652
#	91327
#	125290
#	146490
#	160340
#	171690
#
# Disc length: 2454 seconds
#
# Revision: 2
# Processed by: cddbd v1.5.1PL2 Copyright (c) Steve Scherf et al.
# Submitted via: MusicManager 7.0.6.0 
#
DISCID=8e09940a
DTITLE=Buckwheat Zydeco Ils Sont Partis Band - 100% Fortified Zydeco
DYEAR=1988
DGENRE=
TTITLE0=I Need Your Lovin' Everyday
TTITLE1=I've Had Trouble With the Blues
TTITLE2=Jasperoux
TTITLE3=Somebody Stole My Slide
TTITLE4=In the Summertime
TTITLE5=Take Me to the Mountain Top
TTITLE6=Buck's Nouvelle Jole Blon
TTITLE7=Is There Something Inside You?
TTITLE8=Zydec Tous Pa Tous
TTITLE9=I'm Ready to Play
EXTD=
EXTT0=
EXTT1=
EXTT2=
EXTT3=
EXTT4=
EXTT5=
EXTT6=
EXTT7=
EXTT8=
EXTT9=
PLAYORDER=
